<svg width="186" height="105" viewBox="0 0 186 105" fill="none" xmlns="http://www.w3.org/2000/svg">
<path d="M43.3345 50.7895C42.938 51.1899 42.6343 51.6731 42.4452 52.2046C42.256 52.7362 42.186 53.3031 42.2401 53.865L42.2213 53.8461C42.2769 54.5074 42.188 55.173 41.9609 55.7963C41.7338 56.4196 41.3738 56.9857 40.9062 57.455C40.4386 57.9243 39.8745 58.2855 39.2534 58.5135C38.6323 58.7414 37.9691 58.8306 37.3102 58.7748L37.329 58.7937C36.5407 58.72 35.749 58.8922 35.0618 59.2867C34.3746 59.6811 33.8254 60.2787 33.489 60.9979C33.1526 61.7172 33.0454 62.523 33.182 63.3056C33.3187 64.0882 33.6925 64.8094 34.2526 65.371C34.8126 65.9325 35.5316 66.3071 36.3116 66.4435C37.0915 66.5799 37.8943 66.4716 38.6107 66.1334C39.327 65.7951 39.922 65.2434 40.3144 64.5533C40.7068 63.8633 40.8777 63.0686 40.8036 62.2776L40.8235 62.2965C40.7678 61.6351 40.8567 60.9696 41.0838 60.3463C41.311 59.7229 41.6709 59.1569 42.1385 58.6876C42.6062 58.2183 43.1702 57.857 43.7913 57.6291C44.4124 57.4011 45.0756 57.312 45.7346 57.3678L45.7147 57.3489C46.3586 57.407 47.0067 57.301 47.599 57.0408C48.1912 56.7806 48.7084 56.3746 49.1027 55.8604C49.4969 55.3462 49.7555 54.7404 49.8543 54.0992C49.9532 53.458 49.8891 52.8021 49.6682 52.1924C49.4472 51.5826 49.0764 51.0387 48.5902 50.6111C48.104 50.1834 47.5181 49.8858 46.8868 49.7459C46.2555 49.606 45.5992 49.6283 44.9788 49.8108C44.3584 49.9932 43.7939 50.3298 43.3376 50.7895H43.3345Z" fill="#232536"/>
<path d="M35.6164 56.3178L35.5965 56.2989C36.1566 56.3555 36.7223 56.2865 37.2525 56.0969C37.7828 55.9073 38.2644 55.6018 38.6626 55.2024C39.0608 54.8031 39.3656 54.32 39.555 53.788C39.7443 53.2559 39.8135 52.6883 39.7575 52.1262L39.7774 52.1451C39.7217 51.4837 39.8106 50.8182 40.0377 50.1949C40.2649 49.5715 40.6248 49.0055 41.0924 48.5362C41.56 48.0669 42.1241 47.7056 42.7452 47.4777C43.3663 47.2497 44.0295 47.1606 44.6884 47.2164L44.6686 47.1975C45.4569 47.2718 46.2489 47.1002 46.9365 46.7062C47.6241 46.3122 48.1738 45.7149 48.5107 44.9957C48.8476 44.2766 48.9553 43.4707 48.8191 42.6879C48.6828 41.9052 48.3093 41.1836 47.7494 40.6217C47.1895 40.0598 46.4705 39.685 45.6905 39.5482C44.9106 39.4115 44.1075 39.5195 43.391 39.8576C42.6744 40.1958 42.0793 40.7475 41.6867 41.4376C41.294 42.1276 41.1231 42.9224 41.1971 43.7136L41.1783 43.6936C41.2341 44.355 41.1454 45.0207 40.9183 45.6441C40.6912 46.2675 40.3313 46.8336 39.8636 47.303C39.396 47.7723 38.8318 48.1335 38.2107 48.3614C37.5895 48.5893 36.9262 48.6783 36.2672 48.6223L36.286 48.6423C35.7259 48.5857 35.1603 48.6546 34.63 48.8443C34.0998 49.0339 33.6181 49.3394 33.2199 49.7387C32.8217 50.1381 32.5169 50.6212 32.3276 51.1532C32.1383 51.6852 32.0691 52.2529 32.1251 52.815L32.1063 52.7961C32.1617 53.4574 32.0727 54.1229 31.8455 54.7461C31.6183 55.3693 31.2584 55.9353 30.7908 56.4046C30.3232 56.8739 29.7592 57.2351 29.1382 57.4631C28.5172 57.6911 27.8541 57.7804 27.1952 57.7248L27.214 57.7437C26.4257 57.6694 25.6337 57.841 24.9461 58.235C24.2585 58.629 23.7088 59.2263 23.3718 59.9454C23.0349 60.6645 22.9273 61.4704 23.0635 62.2532C23.1998 63.036 23.5733 63.7576 24.1332 64.3195C24.6931 64.8813 25.412 65.2562 26.192 65.393C26.972 65.5297 27.775 65.4216 28.4916 65.0835C29.2081 64.7454 29.8033 64.1937 30.1959 63.5036C30.5885 62.8136 30.7595 62.0187 30.6855 61.2276L30.7053 61.2465C30.6497 60.5851 30.7386 59.9196 30.9657 59.2963C31.1928 58.6729 31.5528 58.1069 32.0204 57.6376C32.488 57.1683 33.0521 56.807 33.6732 56.5791C34.2943 56.3511 34.9574 56.262 35.6164 56.3178Z" fill="#232536"/>
<path d="M28.6045 54.2105C29.0011 53.8102 29.3047 53.327 29.4937 52.7954C29.6827 52.2638 29.7524 51.6968 29.6979 51.135L29.7178 51.1539C29.6621 50.4924 29.751 49.8266 29.9782 49.2032C30.2055 48.5797 30.5656 48.0135 31.0335 47.5441C31.5014 47.0748 32.0657 46.7136 32.687 46.4858C33.3084 46.258 33.9718 46.1691 34.6309 46.2252L34.6111 46.2063C35.3991 46.2804 36.1908 46.1088 36.878 45.7148C37.5653 45.3208 38.1148 44.7236 38.4515 44.0047C38.7882 43.2858 38.8958 42.4802 38.7595 41.6977C38.6233 40.9152 38.2499 40.194 37.6902 39.6323C37.1305 39.0706 36.4118 38.6958 35.6321 38.5591C34.8524 38.4224 34.0497 38.5303 33.3334 38.8682C32.617 39.2061 32.022 39.7576 31.6294 40.4473C31.2368 41.1371 31.0658 41.9316 31.1396 42.7224L31.1208 42.7035C31.1764 43.3649 31.0875 44.0304 30.8604 44.6538C30.6333 45.2771 30.2733 45.8432 29.8057 46.3125C29.3381 46.7818 28.774 47.143 28.1529 47.3709C27.5318 47.5989 26.8687 47.6881 26.2097 47.6322L26.2285 47.6511C25.5846 47.5932 24.9366 47.6993 24.3444 47.9596C23.7523 48.2199 23.2352 48.626 22.841 49.1403C22.4469 49.6546 22.1885 50.2604 22.0897 50.9015C21.991 51.5427 22.0551 52.1985 22.2762 52.8082C22.4972 53.4179 22.868 53.9618 23.3543 54.3893C23.8405 54.8169 24.4264 55.1144 25.0577 55.2542C25.6889 55.3941 26.3452 55.3717 26.9656 55.1893C27.586 55.0068 28.1504 54.6702 28.6066 54.2105H28.6045Z" fill="#232536"/>
<path d="M61.0142 43.7377H64.1215V58.9133H61.0142V43.7377Z" fill="#232536"/>
<path d="M65.8813 53.7169C65.8769 52.6264 66.1952 51.559 66.7957 50.6501C67.3963 49.7412 68.2521 49.0317 69.2548 48.6113C70.2576 48.1909 71.362 48.0787 72.4284 48.2887C73.4947 48.4988 74.4749 49.0218 75.2449 49.7914C76.0148 50.561 76.5398 51.5426 76.7534 52.6119C76.967 53.6812 76.8596 54.7901 76.4448 55.7981C76.0299 56.8061 75.3263 57.6678 74.4231 58.2742C73.5198 58.8806 72.4576 59.2042 71.3709 59.2042C70.6496 59.2125 69.9338 59.0764 69.2655 58.8038C68.5972 58.5312 67.9897 58.1277 67.4786 57.6168C66.9675 57.1059 66.563 56.4979 66.2887 55.8283C66.0144 55.1587 65.8759 54.4409 65.8813 53.7169ZM73.7532 53.7169C73.7403 53.2469 73.5895 52.791 73.3198 52.4065C73.0501 52.0219 72.6735 51.7257 72.237 51.5547C71.8004 51.3838 71.3234 51.3459 70.8654 51.4456C70.4075 51.5453 69.989 51.7783 69.6623 52.1154C69.3356 52.4525 69.1151 52.8787 69.0285 53.3409C68.9419 53.8031 68.9929 54.2806 69.1752 54.7138C69.3576 55.147 69.6631 55.5166 70.0536 55.7765C70.4441 56.0364 70.9023 56.175 71.3709 56.175C71.6918 56.1836 72.011 56.1254 72.3084 56.004C72.6058 55.8826 72.8748 55.7007 73.0987 55.4698C73.3225 55.2388 73.4962 54.9639 73.6089 54.6622C73.7215 54.3605 73.7707 54.0386 73.7532 53.7169Z" fill="#232536"/>
<path d="M89.2451 48.5195V58.3895C89.2451 61.8818 86.5311 63.3581 83.7763 63.3581C82.8064 63.4309 81.8352 63.2343 80.9693 62.7898C80.1033 62.3453 79.3761 61.67 78.8673 60.8381L81.5185 59.2998C81.7324 59.7335 82.0731 60.0913 82.4951 60.3253C82.9171 60.5593 83.4003 60.6583 83.8799 60.6092C84.1865 60.6518 84.4986 60.6247 84.7933 60.5299C85.088 60.4351 85.3577 60.275 85.5825 60.0615C85.8072 59.8479 85.9812 59.5864 86.0916 59.2963C86.202 59.0061 86.246 58.6948 86.2204 58.3853V57.435C85.8565 57.8818 85.3934 58.2368 84.8681 58.4715C84.3428 58.7062 83.77 58.814 83.1957 58.7864C81.8291 58.7431 80.5329 58.1679 79.5814 57.1824C78.6299 56.197 78.0979 54.8786 78.0979 53.5065C78.0979 52.1343 78.6299 50.8159 79.5814 49.8305C80.5329 48.845 81.8291 48.2698 83.1957 48.2265C83.77 48.1989 84.3428 48.3067 84.8681 48.5414C85.3934 48.7761 85.8565 49.1311 86.2204 49.5779V48.5174L89.2451 48.5195ZM86.2214 53.508C86.2423 53.0055 86.1128 52.5081 85.8497 52.08C85.5865 51.6519 85.2018 51.3126 84.7449 51.1058C84.2879 50.899 83.7798 50.8342 83.2859 50.9197C82.792 51.0052 82.3348 51.237 81.9733 51.5854C81.6118 51.9339 81.3625 52.3829 81.2574 52.8747C81.1523 53.3665 81.1963 53.8787 81.3837 54.3452C81.5711 54.8117 81.8933 55.2113 82.3089 55.4925C82.7245 55.7737 83.2144 55.9236 83.7156 55.923C84.0421 55.9459 84.3698 55.8999 84.6775 55.788C84.9852 55.676 85.2661 55.5007 85.5021 55.2732C85.7382 55.0457 85.9241 54.7711 86.048 54.467C86.1719 54.163 86.231 53.8363 86.2214 53.508Z" fill="#232536"/>
<path d="M91.0048 53.7169C91.0004 52.6264 91.3187 51.559 91.9193 50.6501C92.5198 49.7412 93.3757 49.0317 94.3784 48.6113C95.3811 48.1909 96.4856 48.0787 97.5519 48.2887C98.6182 48.4988 99.5985 49.0218 100.368 49.7914C101.138 50.561 101.663 51.5426 101.877 52.6119C102.091 53.6812 101.983 54.7901 101.568 55.7981C101.153 56.8061 100.45 57.6678 99.5466 58.2742C98.6434 58.8806 97.5811 59.2042 96.4944 59.2042C95.7731 59.2125 95.0574 59.0764 94.3891 58.8038C93.7207 58.5312 93.1133 58.1277 92.6021 57.6168C92.091 57.1059 91.6865 56.4979 91.4122 55.8283C91.138 55.1587 90.9995 54.4409 91.0048 53.7169ZM98.8768 53.7169C98.8638 53.2469 98.7131 52.791 98.4434 52.4065C98.1737 52.0219 97.797 51.7257 97.3605 51.5547C96.9239 51.3838 96.4469 51.3459 95.989 51.4456C95.531 51.5453 95.1126 51.7783 94.7858 52.1154C94.4591 52.4525 94.2387 52.8787 94.152 53.3409C94.0654 53.8031 94.1165 54.2806 94.2988 54.7138C94.4811 55.147 94.7866 55.5166 95.1772 55.7765C95.5677 56.0364 96.0259 56.175 96.4944 56.175C96.8154 56.1836 97.1346 56.1254 97.4319 56.004C97.7293 55.8826 97.9984 55.7007 98.2222 55.4698C98.446 55.2388 98.6198 54.9639 98.7324 54.6622C98.8451 54.3605 98.8942 54.0386 98.8768 53.7169Z" fill="#232536"/>
<path d="M103.433 45.7338C103.433 45.3637 103.542 45.0019 103.747 44.6942C103.952 44.3865 104.243 44.1467 104.584 44.0051C104.925 43.8635 105.3 43.8264 105.661 43.8986C106.023 43.9708 106.355 44.149 106.616 44.4107C106.877 44.6724 107.054 45.0058 107.126 45.3687C107.198 45.7317 107.161 46.1079 107.02 46.4498C106.879 46.7917 106.64 47.0839 106.333 47.2895C106.027 47.4951 105.666 47.6049 105.298 47.6049C104.805 47.6 104.333 47.4012 103.985 47.0514C103.636 46.7016 103.438 46.2285 103.433 45.7338ZM103.747 48.5194H106.855V58.9144H103.743L103.747 48.5194Z" fill="#232536"/>
<path d="M120.272 53.7169C120.308 54.4039 120.209 55.0913 119.979 55.7394C119.749 56.3876 119.394 56.9838 118.934 57.4937C118.474 58.0037 117.918 58.4173 117.298 58.7109C116.678 59.0044 116.006 59.1721 115.322 59.2042C114.746 59.2358 114.17 59.1383 113.637 58.9189C113.103 58.6995 112.625 58.3637 112.236 57.9358V63.0714H109.129V48.5194H112.236V49.4959C112.625 49.0683 113.103 48.7328 113.637 48.5136C114.17 48.2944 114.746 48.1971 115.322 48.2286C116.007 48.2606 116.678 48.4282 117.298 48.7217C117.918 49.0153 118.475 49.429 118.935 49.9391C119.395 50.4492 119.75 51.0456 119.98 51.6939C120.209 52.3423 120.309 53.0298 120.272 53.7169ZM117.165 53.7169C117.153 53.2304 116.998 52.7583 116.72 52.3597C116.442 51.9611 116.053 51.6537 115.601 51.476C115.15 51.2982 114.656 51.2581 114.182 51.3605C113.708 51.4629 113.275 51.7034 112.936 52.0518C112.598 52.4002 112.369 52.8411 112.279 53.3192C112.189 53.7974 112.241 54.2916 112.43 54.74C112.618 55.1884 112.934 55.5711 113.338 55.8402C113.742 56.1092 114.216 56.2527 114.701 56.2527C115.034 56.2675 115.366 56.2116 115.676 56.0886C115.986 55.9655 116.267 55.7782 116.499 55.5387C116.732 55.2993 116.911 55.0132 117.026 54.6993C117.141 54.3853 117.188 54.0505 117.165 53.7169Z" fill="#232536"/>
<path d="M129.861 55.7949C129.861 58.1857 127.791 59.2042 125.554 59.2042C124.65 59.2864 123.743 59.0946 122.949 58.6536C122.155 58.2126 121.511 57.5426 121.1 56.7304L123.792 55.1922C123.901 55.5676 124.135 55.8942 124.455 56.1174C124.775 56.3406 125.161 56.4469 125.55 56.4186C126.295 56.4186 126.668 56.1897 126.668 55.7749C126.668 54.6304 121.572 55.2342 121.572 51.6379C121.572 49.371 123.478 48.2286 125.632 48.2286C126.442 48.2029 127.244 48.3956 127.954 48.7868C128.665 49.178 129.258 49.7532 129.671 50.4525L127.02 51.8868C126.904 51.6145 126.71 51.3826 126.463 51.22C126.217 51.0573 125.928 50.9712 125.632 50.9722C125.094 50.9722 124.762 51.1822 124.762 51.5539C124.766 52.7394 129.861 51.9487 129.861 55.7949Z" fill="#232536"/>
<path d="M141.212 48.5194V58.9144H138.105V57.9369C137.746 58.3682 137.291 58.7081 136.776 58.9286C136.262 59.1491 135.702 59.2439 135.144 59.2053C133.051 59.2053 131.273 57.709 131.273 54.9003V48.5194H134.38V54.4435C134.354 54.6911 134.382 54.9414 134.462 55.177C134.542 55.4125 134.673 55.6278 134.844 55.8076C135.016 55.9875 135.224 56.1278 135.455 56.2186C135.686 56.3094 135.934 56.3486 136.182 56.3335C137.321 56.3335 138.108 55.6689 138.108 54.1926V48.5226L141.212 48.5194Z" fill="#232536"/>
<path d="M159.03 52.5316V58.9135H155.923V52.8014C155.923 51.7619 155.426 51.0973 154.432 51.0973C153.396 51.0973 152.815 51.8249 152.815 53.0513V58.9135H149.709V52.8014C149.709 51.7619 149.212 51.0973 148.217 51.0973C147.181 51.0973 146.601 51.8249 146.601 53.0513V58.9135H143.494V48.5185H146.601V49.474C146.924 49.0501 147.346 48.7139 147.831 48.4962C148.316 48.2785 148.848 48.1861 149.377 48.2276C149.909 48.2015 150.438 48.3141 150.914 48.5544C151.389 48.7948 151.794 49.1546 152.09 49.5989C152.434 49.1341 152.891 48.7645 153.416 48.5247C153.941 48.2849 154.519 48.1827 155.094 48.2276C157.472 48.2287 159.03 49.9328 159.03 52.5316Z" fill="#232536"/>
<path d="M161.658 48.4554C162.932 48.4554 163.964 47.4193 163.964 46.1412C163.964 44.8631 162.932 43.827 161.658 43.827C160.384 43.827 159.352 44.8631 159.352 46.1412C159.352 47.4193 160.384 48.4554 161.658 48.4554Z" fill="#232536"/>
</svg>
