<svg width="22" height="27" viewBox="0 0 22 27" fill="none" xmlns="http://www.w3.org/2000/svg">
<path fill-rule="evenodd" clip-rule="evenodd" d="M4.96335 7.99563H3.99628C3.97526 7.99563 3.9558 8.01517 3.9558 8.03595V10.7357C3.9558 10.7566 3.97526 10.7759 3.99628 10.7759H4.96335V7.99563ZM16.3258 6.78681H17.2928C17.981 6.78681 18.5418 7.34765 18.5418 8.03595V10.7356C18.5418 11.4238 17.981 11.9846 17.2928 11.9846H15.6222C15.1245 12.7756 14.4218 13.4666 13.6664 14.0111C13.6664 14.9805 14.3688 15.7721 15.3587 15.7721C18.2499 15.7721 20.5968 16.5344 20.5968 20.0431C20.5968 20.3769 20.3262 20.6475 19.9923 20.6475C19.6587 20.6475 19.3879 20.3769 19.3879 20.0431C19.3879 17.2287 17.5223 16.9808 15.3587 16.9808C14.879 16.9808 14.4259 16.8634 14.0267 16.656L10.7985 18.9935C10.5923 19.1495 10.3005 19.1604 10.0802 19.0007L7.00519 16.774C6.67269 16.9074 6.30983 16.9808 5.93026 16.9808C3.76692 16.9808 1.9011 17.2287 1.9011 20.0431C1.9011 20.3769 1.63041 20.6475 1.29673 20.6475C0.96297 20.6475 0.6922 20.3769 0.6922 20.0431C0.6922 16.5344 3.03917 15.7721 5.93026 15.7721C6.81921 15.7721 7.55308 15.0787 7.61787 14.2055C6.75607 13.6396 5.95066 12.8803 5.43179 11.9846H3.99628C3.30806 11.9846 2.74722 11.4238 2.74722 10.7356V8.03595C2.74722 7.34765 3.30798 6.78681 3.99628 6.78681H4.96335V5.92454C4.96335 3.01846 7.31063 0.62207 10.2103 0.62207H11.0787C13.9782 0.62207 16.3258 3.01877 16.3258 5.92469V6.78681ZM15.117 10.7764V6.85843C13.4764 7.06943 11.8271 6.60585 10.5412 5.57478C9.34714 6.52953 7.79719 7.03609 6.17217 6.88125V10.7C6.43486 11.5392 7.07241 12.2797 7.80715 12.8567C8.80889 13.6435 9.94696 14.1083 10.5702 14.1083C11.2021 14.1083 12.4823 13.5195 13.556 12.5583C13.7567 12.379 13.948 12.1871 14.1244 11.9849H12.2561C12.0725 12.2294 11.7799 12.3877 11.4503 12.3877C10.8939 12.3877 10.4431 11.9366 10.4431 11.3805C10.4431 10.824 10.8939 10.373 11.4503 10.373C11.7799 10.373 12.0725 10.5313 12.2561 10.776C13.0579 10.7759 14.394 10.7764 15.117 10.7764ZM17.2928 7.99563H16.3258V10.7759H17.2928C17.3137 10.7759 17.3331 10.7566 17.3331 10.7356V8.03595C17.3331 8.01517 17.3137 7.99563 17.2928 7.99563ZM15.1072 5.64184C15.0017 4.08742 14.0324 2.7578 12.6729 2.16324C12.4579 3.13156 12.0156 4.00129 11.4114 4.72356C12.4646 5.51493 13.7967 5.84931 15.1072 5.64184ZM11.5057 1.8538C11.3654 1.83881 11.223 1.83097 11.0787 1.83097H10.2103C8.05494 1.83097 6.31038 3.54376 6.18001 5.66961C8.67962 5.9603 10.9876 4.29097 11.5057 1.8538ZM8.05956 16.0473L10.4344 17.7669L13.0694 15.8589C12.81 15.5256 12.6214 15.1347 12.5267 14.709C11.7636 15.0994 11.0474 15.3168 10.5702 15.3168C10.0987 15.3168 9.43734 15.142 8.73469 14.8226C8.61154 15.2861 8.37614 15.7049 8.05956 16.0473Z" fill="#FFA155"/>
<path d="M1.62524 22.5215C6.03665 26.0042 12.0733 28.326 19.7352 22.5215" stroke="#444CFC" stroke-width="1.5" stroke-linecap="round"/>
</svg>
