<svg width="113" height="26" viewBox="0 0 113 26" fill="none" xmlns="http://www.w3.org/2000/svg">
<path fill-rule="evenodd" clip-rule="evenodd" d="M11.6466 0V3.72247C9.2608 3.72247 6.97271 4.67756 5.28569 6.37763C3.59867 8.0777 2.65091 10.3835 2.65091 12.7878C2.65091 15.192 3.59867 17.4978 5.28569 19.1979C6.97271 20.898 9.2608 21.8531 11.6466 21.8531V25.5755H0V0H11.6466ZM29.7859 6.00016H27.1784V18.6565H29.7859V6.00016ZM32.0168 11.7628C31.5143 12.5196 31.246 13.4097 31.246 14.3202C31.2379 14.9242 31.3495 15.5236 31.5743 16.0835C31.7991 16.6434 32.1325 17.1524 32.5551 17.5807C32.9777 18.0089 33.4809 18.3479 34.0351 18.5776C34.5894 18.8074 35.1836 18.9233 35.7829 18.9186C36.6865 18.9238 37.5713 18.6585 38.3251 18.1564C39.0789 17.6543 39.6678 16.938 40.0172 16.0982C40.3666 15.2585 40.4606 14.3331 40.2875 13.4394C40.1144 12.5456 39.6819 11.7238 39.0448 11.0781C38.4077 10.4324 37.5947 9.99184 36.7089 9.81227C35.823 9.6327 34.9042 9.72222 34.0689 10.0695C33.2336 10.4167 32.5194 11.0061 32.0168 11.7628ZM37.423 13.2255C37.6469 13.5469 37.7717 13.9277 37.782 14.3202H37.7646C37.779 14.5873 37.7386 14.8544 37.6459 15.105C37.5532 15.3556 37.4102 15.5842 37.2258 15.7765C37.0415 15.9689 36.8197 16.1208 36.5744 16.2229C36.3292 16.325 36.0656 16.375 35.8003 16.3698C35.4106 16.3696 35.0296 16.2537 34.705 16.0365C34.3803 15.8193 34.1264 15.5105 33.975 15.1487C33.8236 14.7868 33.7815 14.388 33.8538 14.0021C33.9261 13.6162 34.1097 13.2604 34.3817 12.9792C34.6536 12.6979 35.0018 12.5037 35.3827 12.4208C35.7636 12.3379 36.1604 12.37 36.5232 12.5131C36.8861 12.6563 37.1991 12.904 37.423 13.2255ZM50.6367 9.98472V18.2267C50.6367 21.1346 48.3769 22.3696 46.0911 22.3696C45.2848 22.4363 44.476 22.2748 43.7559 21.9035C43.0357 21.5321 42.4327 20.9655 42.0147 20.2675L44.2137 18.9887C44.3919 19.3507 44.6753 19.6495 45.0263 19.8451C45.3772 20.0407 45.7789 20.1239 46.178 20.0835C46.4322 20.1151 46.6902 20.0897 46.9335 20.0091C47.1768 19.9284 47.3994 19.7946 47.5854 19.6172C47.7714 19.4398 47.9162 19.2232 48.0095 18.9828C48.1028 18.7424 48.1422 18.4842 48.1249 18.2267V17.4296C47.8214 17.8004 47.4364 18.0947 47.0004 18.2894C46.5644 18.484 46.0894 18.5735 45.613 18.5508C44.4605 18.5508 43.3551 18.0894 42.5401 17.2681C41.7251 16.4468 41.2673 15.3329 41.2673 14.1714C41.2673 13.0099 41.7251 11.896 42.5401 11.0747C43.3551 10.2534 44.4605 9.79203 45.613 9.79203C46.0894 9.76933 46.5644 9.85884 47.0004 10.0534C47.4364 10.2481 47.8214 10.5424 48.1249 10.9131V10.0373L50.6367 9.98472ZM48.1249 14.1451C48.1422 13.7261 48.0348 13.3114 47.8163 12.9544C47.5979 12.5974 47.2785 12.3143 46.8992 12.1417C46.5199 11.9691 46.0981 11.9148 45.6879 11.9857C45.2777 12.0567 44.8979 12.2497 44.5974 12.5398C44.297 12.83 44.0895 13.2042 44.0017 13.6142C43.9139 14.0241 43.9498 14.4512 44.1048 14.8404C44.2598 15.2297 44.5268 15.5633 44.8715 15.7984C45.2162 16.0335 45.6227 16.1593 46.0389 16.1596C46.3105 16.1793 46.5831 16.1414 46.8393 16.0484C47.0954 15.9553 47.3293 15.8091 47.5259 15.6193C47.7225 15.4294 47.8773 15.2001 47.9805 14.9462C48.0837 14.6923 48.1329 14.4194 48.1249 14.1451ZM52.8751 11.7647C52.3733 12.5211 52.1055 13.4105 52.1055 14.3203C52.0985 14.9254 52.2115 15.5258 52.4378 16.0863C52.6641 16.6468 52.9991 17.1561 53.4233 17.5844C53.8475 18.0126 54.3523 18.3513 54.908 18.5804C55.4638 18.8095 56.0594 18.9245 56.6598 18.9186C57.5626 18.9204 58.4457 18.6522 59.1972 18.1479C59.9488 17.6437 60.535 16.9262 60.8817 16.0861C61.2284 15.246 61.32 14.3212 61.1449 13.4286C60.9698 12.536 60.5359 11.7159 59.8981 11.0719C59.2603 10.4279 58.4473 9.98911 57.5619 9.81097C56.6765 9.63283 55.7586 9.72338 54.9243 10.0712C54.09 10.4189 53.3768 11.0083 52.8751 11.7647ZM58.2818 13.2246C58.5061 13.5462 58.6312 13.9274 58.6415 14.3203H58.6328C58.6472 14.5873 58.6067 14.8545 58.514 15.1051C58.4213 15.3556 58.2783 15.5842 58.094 15.7766C57.9096 15.9689 57.6879 16.1209 57.4426 16.223C57.1973 16.3251 56.9338 16.3751 56.6685 16.3699C56.2784 16.3714 55.8966 16.257 55.5708 16.0408C55.245 15.8247 54.9898 15.5165 54.837 15.1548C54.6843 14.7931 54.6409 14.394 54.7123 14.0076C54.7836 13.6211 54.9665 13.2645 55.2381 12.9824C55.5097 12.7003 55.8579 12.5052 56.239 12.4216C56.6201 12.338 57.0173 12.3696 57.3807 12.5124C57.7441 12.6553 58.0575 12.903 58.2818 13.2246ZM62.4223 7.66367C62.4223 7.35532 62.513 7.05389 62.683 6.79751C62.853 6.54112 63.0946 6.34129 63.3773 6.22329C63.66 6.10529 63.9711 6.07442 64.2712 6.13457C64.5713 6.19473 64.8469 6.34322 65.0633 6.56125C65.2797 6.77929 65.427 7.05709 65.4867 7.35952C65.5464 7.66194 65.5157 7.97542 65.3987 8.2603C65.2816 8.54518 65.0833 8.78867 64.8288 8.95998C64.5744 9.13129 64.2753 9.22273 63.9693 9.22273C63.5604 9.21818 63.1695 9.05246 62.8804 8.76106C62.5912 8.46966 62.4268 8.07575 62.4223 7.66367ZM62.6743 9.98474H65.2818V18.6559H62.6743V9.98474ZM76.1938 16.0174C76.3867 15.4737 76.4709 14.8968 76.4417 14.3202C76.4674 13.7456 76.3805 13.1716 76.1861 12.6309C75.9916 12.0902 75.6934 11.5934 75.3084 11.1688C74.9234 10.7443 74.4593 10.4003 73.9424 10.1565C73.4255 9.91276 72.866 9.77398 72.2959 9.7481C71.8107 9.71381 71.3242 9.79054 70.8726 9.97255C70.4211 10.1546 70.0162 10.4372 69.6884 10.7992V9.98459H67.0809V22.1417H69.6884V17.8587C70.0158 18.2218 70.4203 18.5057 70.8718 18.6892C71.3233 18.8727 71.8101 18.9511 72.2959 18.9185C72.8683 18.8927 73.43 18.7531 73.9487 18.5076C74.4673 18.2622 74.9327 17.9159 75.318 17.4885C75.7033 17.0611 76.001 16.5612 76.1938 16.0174ZM73.4629 13.1855C73.6948 13.5187 73.824 13.9134 73.8342 14.3202C73.8541 14.5984 73.8154 14.8778 73.7206 15.1399C73.6258 15.402 73.4771 15.641 73.2842 15.8411C73.0913 16.0412 72.8587 16.198 72.6015 16.3012C72.3443 16.4044 72.0683 16.4516 71.7917 16.4398C71.3879 16.4414 70.9926 16.3228 70.6554 16.099C70.3182 15.8751 70.054 15.556 69.896 15.1815C69.738 14.807 69.6933 14.3938 69.7673 13.9938C69.8413 13.5938 70.0309 13.2246 70.3122 12.9327C70.5935 12.6408 70.954 12.439 71.3487 12.3527C71.7433 12.2664 72.1544 12.2994 72.5305 12.4475C72.9066 12.5957 73.2309 12.8524 73.4629 13.1855ZM84.3771 16.0548C84.3771 18.0518 82.6388 18.9014 80.7962 18.9014C80.0446 18.9695 79.2901 18.809 78.63 18.4405C77.97 18.072 77.4348 17.5125 77.0936 16.8343L79.336 15.5555C79.4248 15.8681 79.6174 16.1404 79.8817 16.3269C80.1459 16.5135 80.4656 16.6029 80.7875 16.5803C81.4046 16.5803 81.7175 16.3876 81.7175 16.0373C81.7175 15.6931 81.1674 15.539 80.4638 15.342C79.2157 14.9924 77.4847 14.5075 77.4847 12.5863C77.4847 10.6944 79.0666 9.74848 80.857 9.74848C81.5376 9.71777 82.2137 9.87338 82.8136 10.1988C83.4135 10.5242 83.9147 11.0072 84.2641 11.5966L82.0217 12.7878C81.9226 12.5618 81.7607 12.3696 81.5556 12.2344C81.3504 12.0991 81.1108 12.0267 80.8657 12.0258C80.4137 12.0258 80.1443 12.2009 80.1443 12.5075C80.1443 12.8651 80.6874 13.0104 81.3845 13.1969C82.6335 13.531 84.3771 13.9973 84.3771 16.0548ZM93.8246 18.6558V9.98462H91.2519V14.7581C91.2519 15.9493 90.5914 16.5099 89.6527 16.5099C89.4468 16.5223 89.2406 16.4896 89.0484 16.4139C88.8563 16.3381 88.6827 16.2213 88.5397 16.0714C88.3968 15.9215 88.2878 15.7421 88.2204 15.5456C88.1529 15.3491 88.1286 15.1402 88.1491 14.9333V9.98462H85.5416V15.3275C85.5416 17.666 87.0279 18.9185 88.7662 18.9185C89.2299 18.9451 89.6934 18.8614 90.1191 18.6743C90.5448 18.4871 90.921 18.2018 91.2172 17.8412V18.6558H93.8246ZM108.6 13.3306V18.6559H105.993V13.5583C105.993 12.6825 105.584 12.1394 104.758 12.1394C103.933 12.1394 103.411 12.7438 103.411 13.7686V18.6559H100.804V13.5583C100.804 12.6825 100.395 12.1394 99.5696 12.1394C98.744 12.1394 98.2225 12.7438 98.2225 13.7686V18.6559H95.615V9.98478H98.2225V10.7818C98.4924 10.4297 98.8451 10.1508 99.2487 9.97039C99.6523 9.78995 100.094 9.71362 100.534 9.74829C100.975 9.72512 101.415 9.81789 101.809 10.0175C102.204 10.2171 102.54 10.5167 102.785 10.8869C103.072 10.5002 103.451 10.1929 103.887 9.99377C104.323 9.79465 104.803 9.71019 105.28 9.74829C107.314 9.74829 108.6 11.1672 108.6 13.3306ZM11.6466 3.72257V21.8532C14.0325 21.8532 16.3205 20.8981 18.0076 19.198C19.6946 17.4979 20.6423 15.1921 20.6423 12.7879C20.6423 10.3836 19.6946 8.07781 18.0076 6.37773C16.3205 4.67766 14.0325 3.72257 11.6466 3.72257ZM112.703 8.00581C112.703 9.07002 111.847 9.93273 110.791 9.93273C109.735 9.93273 108.878 9.07002 108.878 8.00581C108.878 6.94159 109.735 6.07888 110.791 6.07888C111.847 6.07888 112.703 6.94159 112.703 8.00581Z" fill="#C9C9C9"/>
</svg>
