<svg width="24" height="24" viewBox="0 0 24 24" fill="none" xmlns="http://www.w3.org/2000/svg">
<g clip-path="url(#clip0_11_26080)">
<path d="M3.02148 0.0449219H21.9785C23.0932 0.0449219 24 0.95176 24 2.06641V20.9336C24 22.0482 23.0932 22.9551 21.9785 22.9551H3.02148C1.90684 22.9551 1 22.0482 1 20.9336V2.06641C1 0.95176 1.90684 0.0449219 3.02148 0.0449219ZM21.9785 1.39258H3.02148C2.64993 1.39258 2.34766 1.69486 2.34766 2.06641V5.43555H22.6523V2.06641C22.6523 1.69486 22.3501 1.39258 21.9785 1.39258ZM3.02148 21.6074H21.9785C22.3501 21.6074 22.6523 21.3051 22.6523 20.9336V6.7832H2.34766V20.9336C2.34766 21.3051 2.64993 21.6074 3.02148 21.6074Z" fill="#FFA155"/>
<path d="M10.213 8.85909C10.5551 8.71251 10.9512 8.87095 11.0978 9.21299L15.1408 18.6466C15.2874 18.9886 15.1289 19.3848 14.7869 19.5314C14.4447 19.678 14.0486 19.5194 13.9021 19.1775L9.85913 9.74387C9.7125 9.40179 9.87099 9.00567 10.213 8.85909Z" fill="#444CFC"/>
<path d="M16.0169 11.0791C16.2494 10.7885 16.6735 10.7414 16.9639 10.9739L20.3331 13.6692C20.6699 13.9386 20.6702 14.4519 20.3331 14.7215L16.9639 17.4168C16.6733 17.6493 16.2492 17.6022 16.0169 17.3116C15.7844 17.021 15.8315 16.597 16.1221 16.3645L18.8335 14.1953L16.1221 12.0262C15.8315 11.7937 15.7844 11.3697 16.0169 11.0791Z" fill="#444CFC"/>
<path d="M4.66694 13.6692L8.03608 10.9739C8.32668 10.7414 8.75075 10.7885 8.98317 11.0791C9.21564 11.3697 9.16856 11.7938 8.87792 12.0262L6.16653 14.1954L8.87792 16.3645C9.16856 16.597 9.21564 17.021 8.98317 17.3116C8.75039 17.6025 8.32628 17.649 8.03608 17.4168L4.66694 14.7215C4.33008 14.4521 4.32985 13.9388 4.66694 13.6692Z" fill="#444CFC"/>
<path d="M20.5859 4.08789C20.2138 4.08789 19.9121 3.78621 19.9121 3.41406C19.9121 3.04192 20.2138 2.74023 20.5859 2.74023C20.9581 2.74023 21.2598 3.04192 21.2598 3.41406C21.2598 3.78621 20.9581 4.08789 20.5859 4.08789Z" fill="#FFA155"/>
<path d="M17.8906 4.08789C17.5185 4.08789 17.2168 3.78621 17.2168 3.41406C17.2168 3.04192 17.5185 2.74023 17.8906 2.74023C18.2628 2.74023 18.5645 3.04192 18.5645 3.41406C18.5645 3.78621 18.2628 4.08789 17.8906 4.08789Z" fill="#FFA155"/>
<path d="M15.1953 4.08789C14.8232 4.08789 14.5215 3.78621 14.5215 3.41406C14.5215 3.04192 14.8232 2.74023 15.1953 2.74023C15.5675 2.74023 15.8691 3.04192 15.8691 3.41406C15.8691 3.78621 15.5675 4.08789 15.1953 4.08789Z" fill="#FFA155"/>
<path d="M8.45703 4.08789H4.41406C4.04193 4.08789 3.74023 3.7862 3.74023 3.41406C3.74023 3.04193 4.04193 2.74023 4.41406 2.74023H8.45703C8.82916 2.74023 9.13086 3.04193 9.13086 3.41406C9.13086 3.7862 8.82916 4.08789 8.45703 4.08789Z" fill="#FFA155"/>
</g>
<defs>
<clipPath id="clip0_11_26080">
<rect width="23" height="23" fill="white" transform="matrix(-1 0 0 1 24 0)"/>
</clipPath>
</defs>
</svg>
