<svg width="24" height="24" viewBox="0 0 24 24" fill="none" xmlns="http://www.w3.org/2000/svg">
<g clip-path="url(#clip0_11_26099)">
<path d="M22.7289 14.6041C22.7288 14.6041 22.7288 14.6041 22.7289 14.6041L22.2055 14.302C20.4748 13.3028 20.4704 10.6999 22.2055 9.69806L22.7289 9.39595C23.4005 9.0082 23.6313 8.14645 23.2436 7.47502L21.5405 4.52508C21.1528 3.85364 20.2911 3.62287 19.6195 4.01039L19.0985 4.31123C17.3796 5.30348 15.1092 4.02783 15.1092 2.01309V1.40625C15.1092 0.630844 14.4784 0 13.703 0H10.2967C9.52129 0 8.89044 0.630844 8.89044 1.40625V2.013C8.89044 4.02825 6.61963 5.3032 4.90115 4.31114L4.38009 4.0103C3.70701 3.62161 2.84779 3.85186 2.4591 4.52498L0.755993 7.47492C0.36829 8.14636 0.59915 9.00811 1.27073 9.39586L1.79404 9.69797C3.52466 10.6972 3.52916 13.3001 1.79404 14.3019L1.27063 14.604C0.599103 14.9917 0.368243 15.8535 0.755946 16.5249L2.45906 19.4749C2.84676 20.1464 3.70846 20.3774 4.37999 19.9896L4.90106 19.6887C6.62081 18.696 8.89035 19.9747 8.89035 21.9869V22.5938C8.89035 23.3692 9.5212 24 10.2966 24H13.7029C14.4783 24 15.1091 23.3692 15.1091 22.5938V21.987C15.1091 19.9719 17.3798 18.6967 19.0984 19.6889L19.6195 19.9897C20.291 20.3774 21.1528 20.1465 21.5405 19.475L23.2436 16.5251C23.6322 15.852 23.402 14.9927 22.7289 14.6041ZM20.3226 18.7718L19.8015 18.471C17.15 16.9401 13.7029 18.8845 13.7029 21.987V22.5938H10.2966V21.987C10.2966 18.8807 6.84604 16.942 4.19793 18.471L3.67687 18.7718L1.97371 15.8219L2.49707 15.5198C3.73574 14.8046 4.50309 13.4627 4.49981 12.0169V12V11.9823C4.50313 10.5374 3.73574 9.19542 2.49707 8.48025L1.97376 8.17814L3.67687 5.2282L4.19793 5.52905C6.84941 7.05998 10.2966 5.11552 10.2966 2.01305V1.40625H13.7029V2.013C13.7029 5.08673 17.1251 7.07414 19.8015 5.529L20.3226 5.22816L22.0258 8.17809L21.5024 8.4802C18.8302 10.023 18.834 13.9792 21.5024 15.5198L22.0258 15.8219L20.3226 18.7718Z" fill="#FFA155"/>
<path d="M11.9997 5.9707C8.67513 5.9707 5.9704 8.67539 5.9704 12C5.9704 15.3245 8.67513 18.0292 11.9997 18.0292C15.3243 18.0292 18.0289 15.3245 18.0289 12C18.0289 8.67539 15.3243 5.9707 11.9997 5.9707ZM11.9997 16.623C9.45054 16.623 7.37665 14.5491 7.37665 12C7.37665 9.4508 9.45054 7.37695 11.9997 7.37695C14.5489 7.37695 16.6227 9.4508 16.6227 12C16.6227 14.5491 14.5489 16.623 11.9997 16.623Z" fill="#444CFC"/>
<path d="M13.6239 10.3651L11.2432 12.1322L10.4692 11.3075C10.2034 11.0243 9.75838 11.0102 9.47526 11.276C9.19209 11.5417 9.17798 11.9867 9.44376 12.2698L10.6465 13.5513C10.891 13.8119 11.2918 13.8474 11.5782 13.6348L14.462 11.4943C14.7738 11.2628 14.839 10.8224 14.6075 10.5106C14.3761 10.1989 13.9357 10.1337 13.6239 10.3651Z" fill="#444CFC"/>
</g>
<defs>
<clipPath id="clip0_11_26099">
<rect width="24" height="24" fill="white"/>
</clipPath>
</defs>
</svg>
